{"asset":{"generator":"Khronos glTF Spline I/O v0.0.1","version":"2.0"},"scenes":[{"nodes":[0]}],"nodes":[{"name":"Untitled","children":[1,2]},{"name":"Cube","matrix":[1,0,0,0,0,1,0,0,0,0,1,0,0,0,0,1],"mesh":0},{"name":"Default Camera","camera":0,"translation":[577.3502691896256,577.3502691896256,577.3502691896257],"rotation":[-0.27984814233312133,0.3647051996310008,0.11591689595929511,0.8804762392171493],"children":[3]},{"name":"Default Directional Light","translation":[850000,1300000,1000000],"rotation":[-0.45895513091666534,0.1367267597249462,-0.25064115022945466,0.8413352451859125],"extensions":{"KHR_lights_punctual":{"light":0}}}],"cameras":[{"type":"orthographic","orthographic":{"xmag":1440,"ymag":875,"zfar":50000,"znear":-50000}}],"meshes":[{"primitives":[{"attributes":{"POSITION":1,"NORMAL":2,"TEXCOORD_0":3},"indices":0}]}],"buffers":[{"uri":"data:application/octet-stream;base64,","byteLength":23496}],"bufferViews":[{"buffer":0,"byteOffset":0,"byteLength":4296,"target":34963},{"buffer":0,"byteOffset":4296,"byteLength":7200,"target":34962},{"buffer":0,"byteOffset":11496,"byteLength":7200,"target":34962},{"buffer":0,"byteOffset":18696,"byteLength":4800,"target":34962}],"accessors":[{"bufferView":0,"byteOffset":0,"componentType":5123,"count":2148,"type":"SCALAR","min":[0],"max":[599]},{"bufferView":1,"byteOffset":0,"componentType":5126,"count":600,"type":"VEC3","min":[-85,-93,-85],"max":[85,93,85]},{"bufferView":2,"byteOffset":0,"componentType":5126,"count":600,"type":"VEC3","min":[-1,-1,-1],"max":[1,1,1]},{"bufferView":3,"byteOffset":0,"componentType":5126,"count":600,"type":"VEC2","min":[0,0],"max":[1,1]}],"extensions":{"KHR_lights_punctual":{"lights":[{"type":"directional","name":"Default Directional Light","color":[1,1,1],"intensity":0.75}]}},"extensionsUsed":["KHR_lights_punctual"]}