<svg height="24" viewBox="0 0 192 192" width="24" xmlns="http://www.w3.org/2000/svg" xmlns:xlink="http://www.w3.org/1999/xlink"><clipPath id="a"><path d="m8 20v140c0 6.6 5.4 12 12 12h152c6.6 0 12-5.4 12-12v-140zm108 32h-40c-4.42 0-8-3.58-8-8s3.58-8 8-8h40c4.42 0 8 3.58 8 8s-3.58 8-8 8z"/></clipPath><clipPath id="b"><circle cx="96" cy="160" r="76"/></clipPath><radialGradient id="c" cx="7.502" cy="19.344" gradientUnits="userSpaceOnUse" r="227.596"><stop offset="0" stop-color="#fff" stop-opacity=".1"/><stop offset="1" stop-color="#fff" stop-opacity="0"/></radialGradient><path clip-path="url(#a)" d="m8 20h176v152h-176z" fill="#eee"/><path clip-path="url(#a)" d="m116 36h-40c-4.42 0-8 3.58-8 8s3.58 8 8 8h40c4.42 0 8-3.58 8-8s-3.58-8-8-8z" fill="#fff"/><g clip-path="url(#a)"><path clip-path="url(#b)" d="m32.07 84v93.27h34.01l29.92-51.82h76v-41.45zm0 0v93.27h34.01l29.92-51.82h76v-41.45z" fill="#db4437"/><path clip-path="url(#b)" d="m20 236h72.34l33.58-33.58v-25.14l-59.84-.01-46.08-79.03zm0 0h72.34l33.58-33.58v-25.14l-59.84-.01-46.08-79.03z" fill="#0f9d58"/><path clip-path="url(#b)" d="m96 125.45 29.92 51.82-33.57 58.73h79.65v-110.55zm0 0 29.92 51.82-33.57 58.73h79.65v-110.55z" fill="#ffcd40"/><g clip-path="url(#b)"><circle cx="96" cy="160" fill="#f1f1f1" r="34.55"/><circle cx="96" cy="160" fill="#4285f4" r="27.64"/></g></g><path clip-path="url(#a)" d="m8 20h176v76h-176z" fill="#212121" fill-opacity=".05"/><path d="m8 95h176v1h-176z" fill="#212121" fill-opacity=".02"/><path d="m8 96h176v1h-176z" fill="#fff" fill-opacity=".05"/><path d="m116 52h-40c-4.25 0-7.72-3.32-7.97-7.5-.02.17-.03.33-.03.5 0 4.42 3.58 8 8 8h40c4.42 0 8-3.58 8-8 0-.17-.01-.33-.03-.5-.25 4.18-3.72 7.5-7.97 7.5zm-108-32v1h176v-1z" fill="#212121" fill-opacity=".02"/><path d="m76 36h40c4.25 0 7.72 3.32 7.97 7.5.01-.17.03-.33.03-.5 0-4.42-3.58-8-8-8h-40c-4.42 0-8 3.58-8 8 0 .17.01.33.03.5.25-4.18 3.72-7.5 7.97-7.5zm96 135h-152c-6.6 0-12-5.4-12-12v1c0 6.6 5.4 12 12 12h152c6.6 0 12-5.4 12-12v-1c0 6.6-5.4 12-12 12z" fill="#231f20" fill-opacity=".1"/><path d="m8 20v140c0 6.6 5.4 12 12 12h152c6.6 0 12-5.4 12-12v-140zm108 32h-40c-4.42 0-8-3.58-8-8s3.58-8 8-8h40c4.42 0 8 3.58 8 8s-3.58 8-8 8z" fill="url(#c)"/><path d="m0 0h192v192h-192z" fill="none"/></svg>