<svg height="33" viewBox="0 0 32 33" width="32" xmlns="http://www.w3.org/2000/svg"><g fill="#2b3033"><path d="m25.0514286 15.6342857c0-2.56-1.0971429-5.0285714-3.0171429-6.71999999-1.92-1.69142857-4.48-2.51428571-7.04-2.24-4.16.45714286-7.54285713 3.83999999-7.9542857 7.99999999-.27428571 2.7885714.68571429 5.5314286 2.69714286 7.4971429.73142854.7314285 1.28000004 1.5542857 1.60000004 2.4685714-.3657143.0914286-.64.4571429-.64.8685714 0 .5028572.4114285.9142857.9142857.9142857v1.0514286c-.5028572 0-.9142857.4114286-.9142857.9142857 0 .5028572.4114285.9142857.9142857.9142857v.3657143c0 1.92 1.8285714 3.2914286 4.4342857 3.2914286s4.4342857-1.3257143 4.4342857-3.2914286v-.3657143c.5028571 0 .9142857-.4114285.9142857-.9142857 0-.5028571-.4114286-.9142857-.9142857-.9142857v-1.0514286c.5028571 0 .9142857-.4114285.9142857-.9142857 0-.4114285-.2742857-.7771428-.64-.8685714.32-.9142857.8685714-1.7371429 1.6-2.4685714 1.6914286-1.7371429 2.6971429-4.0685715 2.6971429-6.5371429zm-6.4457143 10.7428572v1.0514285h-5.2114286v-1.0514285zm-2.6057143 4.7085714c-1.0514286 0-2.6057143-.3657143-2.6057143-1.4628572v-.3657142h5.2114286v.3657142c0 1.0971429-1.5542857 1.4628572-2.6057143 1.4628572zm2.7885714-6.5371429h-5.5771428c-.3657143-1.3714285-1.1428572-2.6971428-2.24-3.7485714-1.60000003-1.5542857-2.42285717-3.7485714-2.14857146-5.9885714.36571429-3.3371429 3.01714286-6.03428574 6.35428576-6.40000003.2742857-.04571428.5485714-.04571428.8228571-.04571428 1.7828571 0 3.4742857.64 4.8 1.82857141 1.5085714 1.3714286 2.4228571 3.3371429 2.4228571 5.3942857 0 1.9657143-.7771428 3.84-2.24 5.2114286-1.0971428 1.0514286-1.8285714 2.3771429-2.1942857 3.7485714z"/><path d="m16 4.57142857c.5028571 0 .9142857-.41142857.9142857-.91428571v-2.74285715c0-.50285714-.4114286-.91428571-.9142857-.91428571s-.9142857.41142857-.9142857.91428571v2.74285715c0 .50285714.4114286.91428571.9142857.91428571z"/><path d="m6.90285714 7.81714286c.18285715.18285714.41142857.27428571.64.27428571s.45714286-.09142857.64-.27428571c.36571429-.36571429.36571429-.91428572 0-1.28l-1.92-1.96571429c-.36571428-.36571428-.91428571-.36571428-1.28 0-.36571428.36571429-.36571428.91428572 0 1.28z"/><path d="m4.98285714 15.6342857c0-.5028571-.41142857-.9142857-.91428571-.9142857h-2.74285714c-.50285715 0-.91428572.4114286-.91428572.9142857 0 .5028572.41142857.9142857.91428572.9142857h2.74285714c.50285714 0 .91428571-.4114285.91428571-.9142857z"/><path d="m6.90285714 23.4057143-1.96571428 1.9657143c-.36571429.3657143-.36571429.9142857 0 1.28.18285714.1828571.41142857.2742857.64.2742857s.45714285-.0914286.64-.2742857l1.96571428-1.9657143c.36571429-.3657143.36571429-.9142857 0-1.28-.36571428-.3657143-.91428571-.32-1.28 0z"/><path d="m25.0971429 23.4057143c-.3657143-.3657143-.9142858-.3657143-1.28 0-.3657143.3657143-.3657143.9142857 0 1.28l1.9657142 1.9657143c.1828572.1828571.4114286.2742857.64.2742857.2285715 0 .4571429-.0914286.64-.2742857.3657143-.3657143.3657143-.9142857 0-1.28z"/><path d="m30.72 14.72h-2.7428571c-.5028572 0-.9142858.4114286-.9142858.9142857 0 .5028572.4114286.9142857.9142858.9142857h2.7428571c.5028571 0 .9142857-.4114285.9142857-.9142857 0-.5028571-.4114286-.9142857-.9142857-.9142857z"/><path d="m24.4571429 8.09142857c.2285714 0 .4571428-.09142857.64-.27428571l1.9657142-1.96571429c.3657143-.36571428.3657143-.91428571 0-1.28-.3657142-.36571428-.9142857-.36571428-1.28 0l-1.9657142 1.96571429c-.3657143.36571428-.3657143.91428571 0 1.28.1828571.18285714.4114285.27428571.64.27428571z"/></g></svg>