<svg width="14" height="16" viewBox="0 0 14 16" fill="none" xmlns="http://www.w3.org/2000/svg">
<style>
  path {
    fill: #000;
  }
  @media (prefers-color-scheme: dark) {
    path { fill: #fff; }
  }
</style>
<path fill-rule="evenodd" clip-rule="evenodd" d="M4.29248 5.82503L0.468082 11.5858C0.179217 12.0207 0.0180569 12.5216 0.00143087 13.0362C-0.0151951 13.5507 0.113325 14.0601 0.373566 14.5112C0.633808 14.9622 1.01623 15.3383 1.48088 15.6002C1.94554 15.8621 2.47539 16.0002 3.01509 16H10.8516C11.3913 16.0002 11.9211 15.8621 12.3858 15.6002C12.8504 15.3383 13.2329 14.9622 13.4931 14.5112C13.7533 14.0601 13.8819 13.5507 13.8652 13.0362C13.8486 12.5216 13.6874 12.0207 13.3986 11.5858L9.57419 5.82503V1.74259H10.0327C10.275 1.74259 10.5073 1.65079 10.6786 1.48739C10.8499 1.32399 10.9461 1.10238 10.9461 0.871294C10.9461 0.640212 10.8499 0.418595 10.6786 0.255196C10.5073 0.0917967 10.275 0 10.0327 0H3.83395C3.5917 0 3.35938 0.0917967 3.18808 0.255196C3.01679 0.418595 2.92055 0.640212 2.92055 0.871294C2.92055 1.10238 3.01679 1.32399 3.18808 1.48739C3.35938 1.65079 3.5917 1.74259 3.83395 1.74259H4.29248V5.82503ZM7.8892 6.54406C7.79653 6.40465 7.74735 6.24298 7.7474 6.07791V1.74323H6.11927V6.07791C6.11931 6.24298 6.07013 6.40465 5.97746 6.54406L3.99448 9.53118L9.87218 9.53118L7.8892 6.54406Z" />
</svg>
