<svg height="494" viewBox="0 0 494 494" width="494" xmlns="http://www.w3.org/2000/svg"><g fill="none" transform="translate(38 58)"><path d="m209 0 209 242.697987-90.538462 122.617449-118.461538 12.684564-118.4615385-12.684564-90.5384615-122.617449z" fill="#ffae00" transform="matrix(-1 0 0 -1 418 378)"/><path d="m209 0 209 242.697987h-418z" fill="#ec6c00" transform="matrix(-1 0 0 -1 418 377.999999)"/><path d="m124.384615 0 124.384616 242.697987h-248.769231z" fill="#ffae00" transform="matrix(-1 0 0 -1 333.384615 377.999999)"/><path d="m124.384615 135.302013 124.384616-135.302013h-248.769231z" fill="#ffefb4" transform="matrix(-1 0 0 -1 333.384615 135.302014)"/><path d="m0 122.61745 46.5384615-61.731544 44-60.885906h-85.46153842z" fill="#ffae00" transform="matrix(-1 0 0 -1 90.538462 135.302014)"/><path d="m0 122.61745 46.5384615-61.731544 44-60.885906h-85.46153842z" fill="#ffae00" transform="matrix(1 0 0 -1 327.461538 135.302014)"/><g fill="#fed305"><path d="m118.461538 122.61745 5.923077-122.61745-124.384615 135.302013z" transform="matrix(-1 0 0 -1 209.000001 135.302014)"/><path d="m118.461538 122.61745 5.923077-122.61745-124.384615 135.302013z" transform="matrix(1 0 0 -1 209 135.302014)"/></g></g></svg>