<?xml version="1.0" encoding="UTF-8" standalone="no"?>
<svg width="400px" height="280px" viewBox="0 0 400 280" version="1.1" xmlns="http://www.w3.org/2000/svg" xmlns:xlink="http://www.w3.org/1999/xlink" xmlns:sketch="http://www.bohemiancoding.com/sketch/ns">
    <!-- Generator: Sketch 3.3.2 (12043) - http://www.bohemiancoding.com/sketch -->
    <title>02</title>
    <desc>Created with Sketch.</desc>
    <defs></defs>
    <g id="Page-1" stroke="none" stroke-width="1" fill="none" fill-rule="evenodd" sketch:type="MSPage">
        <g id="02" sketch:type="MSArtboardGroup">
            <g id="Group" sketch:type="MSLayerGroup" transform="translate(98.000000, 46.000000)">
                <path d="M105.311111,0.766216216 L35.0333333,0.766216216 L65.9555556,48.0162162 L105.311111,0.766216216 Z" id="Shape" fill="#9EF1D4" sketch:type="MSShapeGroup"></path>
                <path d="M35.0333333,0.766216216 L0.277777778,48.0162162 L65.9555556,48.0162162 L35.0333333,0.766216216 Z" id="Shape" fill="#72D7B3" sketch:type="MSShapeGroup"></path>
                <path d="M105.311111,0.766216216 L175.333333,0.766216216 L139.555556,48.0162162 L105.311111,0.766216216 Z" id="Shape" fill="#9EF1D4" sketch:type="MSShapeGroup"></path>
                <path d="M175.588889,0.766216216 L204.722222,48.0162162 L139.555556,48.0162162 L175.588889,0.766216216 Z" id="Shape" fill="#72D7B3" sketch:type="MSShapeGroup"></path>
                <path d="M105.311111,0.766216216 L65.9555556,48.0162162 L139.3,48.0162162 L105.311111,0.766216216 Z" id="Shape" fill="#C7FEEC" sketch:type="MSShapeGroup"></path>
                <path d="M136.488889,48.0162162 L68.5111111,48.0162162 L65.7,48.0162162 L102.5,187.212162 L139.3,48.0162162 L136.488889,48.0162162 Z" id="Shape" fill="#72D7B3" sketch:type="MSShapeGroup"></path>
                <path d="M65.7,48.0162162 L0.277777778,48.0162162 L102.5,187.212162 L65.7,48.0162162 Z" id="Shape" fill="#C7FEEC" sketch:type="MSShapeGroup"></path>
                <path d="M139.3,48.0162162 L102.5,187.212162 L204.722222,48.0162162 L139.3,48.0162162 Z" id="Shape" fill="#4EC098" sketch:type="MSShapeGroup"></path>
            </g>
        </g>
    </g>
</svg>