<?xml version="1.0" encoding="UTF-8" standalone="no"?>
<svg width="400px" height="280px" viewBox="0 0 400 280" version="1.1" xmlns="http://www.w3.org/2000/svg" xmlns:xlink="http://www.w3.org/1999/xlink" xmlns:sketch="http://www.bohemiancoding.com/sketch/ns">
    <!-- Generator: Sketch 3.3.2 (12043) - http://www.bohemiancoding.com/sketch -->
    <title>02</title>
    <desc>Created with Sketch.</desc>
    <defs></defs>
    <g id="Page-1" stroke="none" stroke-width="1" fill="none" fill-rule="evenodd" sketch:type="MSPage">
        <g id="02" sketch:type="MSArtboardGroup">
            <path d="M200,51.846 L135.590333,51.846 L165.108667,96.759 L200,51.846" id="Fill-1" fill="#9EF1D4" sketch:type="MSShapeGroup"></path>
            <path d="M135.590333,51.846 L102.401556,95.846 L165.108667,95.846 L135.590333,51.846" id="Fill-2" fill="#72D7B3" sketch:type="MSShapeGroup"></path>
            <path d="M234.891333,96.759 L264.409667,51.846 L200,51.846 L234.891333,96.759" id="Fill-3" fill="#9EF1D4" sketch:type="MSShapeGroup"></path>
            <path d="M234.891333,95.846 L297.598444,95.846 L264.409667,51.846 L234.891333,95.846" id="Fill-4" fill="#72D7B3" sketch:type="MSShapeGroup"></path>
            <path d="M200,51.846 L164.987056,95.846 L235.012944,95.846 L200,51.846" id="Fill-5" fill="#C7FEEC" sketch:type="MSShapeGroup"></path>
            <path d="M232.448056,95.846 L164.865444,95.846 L200,228.154 L235.134556,95.846 L232.448056,95.846" id="Fill-6" fill="#72D7B3" sketch:type="MSShapeGroup"></path>
            <path d="M164.865444,95.846 L102.401556,95.846 L200,228.154 L164.865444,95.846" id="Fill-7" fill="#C7FEEC" sketch:type="MSShapeGroup"></path>
            <path d="M235.134556,95.846 L200,228.154 L297.598444,95.846 L235.134556,95.846" id="Fill-8" fill="#4EC098" sketch:type="MSShapeGroup"></path>
        </g>
    </g>
</svg>