<?xml version="1.0" encoding="UTF-8" standalone="no"?>
<svg width="400px" height="280px" viewBox="0 0 400 280" version="1.1" xmlns="http://www.w3.org/2000/svg" xmlns:xlink="http://www.w3.org/1999/xlink" xmlns:sketch="http://www.bohemiancoding.com/sketch/ns">
    <!-- Generator: Sketch 3.3.2 (12043) - http://www.bohemiancoding.com/sketch -->
    <title>03 copy</title>
    <desc>Created with Sketch.</desc>
    <defs></defs>
    <g id="Page-1" stroke="none" stroke-width="1" fill="none" fill-rule="evenodd" sketch:type="MSPage">
        <g id="03-copy" sketch:type="MSArtboardGroup" fill-opacity="0.7" fill="#4285F4">
            <g id="Group" sketch:type="MSLayerGroup" transform="translate(39.000000, 54.000000)">
                <path d="M161.118143,0 C161.118143,0 134,38.2067339 134,85.336844 C134,132.466954 161.118143,170.674472 161.118143,170.674472 C161.118143,170.674472 188.2355,132.466954 188.2355,85.336844 C188.2355,38.2067339 161.118143,0 161.118143,0" id="Imported-Layers" sketch:type="MSShapeGroup"></path>
                <path d="M203.183841,11.295172 C203.183841,11.295172 176.065699,49.501906 176.065699,96.6320161 C176.065699,143.762126 203.183841,181.969645 203.183841,181.969645 C203.183841,181.969645 230.301199,143.762126 230.301199,96.6320161 C230.301199,49.501906 203.183841,11.295172 203.183841,11.295172" id="Imported-Layers-Copy" sketch:type="MSShapeGroup" transform="translate(203.565699, 96.795172) rotate(-330.000000) translate(-203.565699, -96.795172) "></path>
                <path d="M117.979013,11.295172 C117.979013,11.295172 90.8608706,49.501906 90.8608706,96.6320161 C90.8608706,143.762126 117.979013,181.969645 117.979013,181.969645 C117.979013,181.969645 145.096371,143.762126 145.096371,96.6320161 C145.096371,49.501906 117.979013,11.295172 117.979013,11.295172" id="Imported-Layers-Copy-3" sketch:type="MSShapeGroup" transform="translate(118.360871, 96.795172) scale(-1, 1) rotate(-330.000000) translate(-118.360871, -96.795172) "></path>
                <path d="M234.413315,43.0656986 C234.413315,43.0656986 207.295172,81.2724325 207.295172,128.402543 C207.295172,175.532653 234.413315,213.740171 234.413315,213.740171 C234.413315,213.740171 261.530672,175.532653 261.530672,128.402543 C261.530672,81.2724325 234.413315,43.0656986 234.413315,43.0656986" id="Imported-Layers-Copy-2" sketch:type="MSShapeGroup" transform="translate(234.795172, 128.565699) rotate(-300.000000) translate(-234.795172, -128.565699) "></path>
                <path d="M87.4133149,43.0656986 C87.4133149,43.0656986 60.295172,81.2724325 60.295172,128.402543 C60.295172,175.532653 87.4133149,213.740171 87.4133149,213.740171 C87.4133149,213.740171 114.530672,175.532653 114.530672,128.402543 C114.530672,81.2724325 87.4133149,43.0656986 87.4133149,43.0656986" id="Imported-Layers-Copy-4" sketch:type="MSShapeGroup" transform="translate(87.795172, 128.565699) scale(-1, 1) rotate(-300.000000) translate(-87.795172, -128.565699) "></path>
            </g>
        </g>
    </g>
</svg>