<?xml version="1.0" encoding="UTF-8" standalone="no"?>
<svg width="400px" height="280px" viewBox="0 0 400 280" version="1.1" xmlns="http://www.w3.org/2000/svg" xmlns:xlink="http://www.w3.org/1999/xlink" xmlns:sketch="http://www.bohemiancoding.com/sketch/ns">
    <!-- Generator: Sketch 3.3.2 (12043) - http://www.bohemiancoding.com/sketch -->
    <title>03</title>
    <desc>Created with Sketch.</desc>
    <defs></defs>
    <g id="Page-1" stroke="none" stroke-width="1" fill="none" fill-rule="evenodd" sketch:type="MSPage">
        <g id="03" sketch:type="MSArtboardGroup">
            <g id="Imported-Layers" sketch:type="MSLayerGroup" transform="translate(50.000000, 53.000000)">
                <path d="M150.48,173.662 C150.482,173.663 150.483,173.665 150.484,173.666 C150.483,173.665 150.483,173.664 150.483,173.663 C150.483,173.663 150.482,173.662 150.48,173.662 M150.485,0.003 C150.485,0.003 127.916,31.852 123.635,73.458 C126.203,77.009 128.65,80.752 130.924,84.691 C145.218,109.449 149.421,136.307 150.484,153.963 C151.549,136.307 155.753,109.454 170.044,84.701 C172.319,80.762 174.768,77.016 177.336,73.464 C173.055,31.858 150.485,0.003 150.485,0.003" id="Fill-1" fill="#7AA9F8" sketch:type="MSShapeGroup"></path>
                <path d="M150.48,173.66 L150.478,173.66 C150.479,173.661 150.48,173.661 150.48,173.662 L150.48,173.66 M63.652,23.265 C63.652,23.265 60.031,62.132 77.126,100.304 C81.126,102.095 85.116,104.113 89.055,106.388 C113.813,120.682 130.881,141.839 140.63,156.598 C132.724,140.775 122.938,115.418 122.938,86.836 C122.938,82.287 123.186,77.818 123.635,73.458 C99.124,39.567 63.652,23.265 63.652,23.265" id="Fill-2" fill="#7AA9F8" sketch:type="MSShapeGroup"></path>
                <path d="M123.635,73.458 C123.186,77.818 122.938,82.287 122.938,86.836 C122.938,115.418 132.724,140.775 140.63,156.598 C147.235,166.597 150.481,173.66 150.481,173.66 L150.48,173.66 L150.48,173.662 C150.482,173.662 150.483,173.663 150.483,173.663 C150.454,173.346 149.778,165.68 150.484,153.963 C149.421,136.307 145.218,109.449 130.924,84.691 C128.65,80.752 126.203,77.009 123.635,73.458" id="Fill-3" fill="#5390F6" sketch:type="MSShapeGroup"></path>
                <path d="M9.361,86.507 C3.523,86.507 0.082,86.828 0.082,86.828 C0.083,86.828 19.976,130.122 61.508,154.1 C91.858,171.623 125.361,173.98 141.202,173.98 C146.936,173.98 150.36,173.671 150.478,173.66 C149.877,173.383 107.021,153.477 83.211,112.238 C80.937,108.299 78.917,104.304 77.126,100.304 C50.31,88.295 23.148,86.507 9.361,86.507" id="Fill-4" fill="#7AA9F8" sketch:type="MSShapeGroup"></path>
                <path d="M77.126,100.304 C78.917,104.304 80.937,108.299 83.211,112.238 C107.021,153.477 149.877,173.383 150.478,173.66 L150.48,173.66 C150.3,173.406 145.879,167.103 140.63,156.598 C130.881,141.839 113.813,120.682 89.055,106.388 C85.116,104.113 81.126,102.095 77.126,100.304" id="Fill-5" fill="#5390F6" sketch:type="MSShapeGroup"></path>
                <path d="M140.63,156.598 C145.879,167.103 150.3,173.406 150.48,173.66 L150.481,173.66 C150.481,173.66 147.235,166.597 140.63,156.598" id="Fill-6" fill="#4788F4" sketch:type="MSShapeGroup"></path>
                <path d="M291.602,86.524 C277.815,86.524 250.655,88.31 223.839,100.32 C222.048,104.32 220.031,108.309 217.756,112.248 C193.778,153.779 150.484,173.673 150.484,173.673 L150.484,173.67 C150.482,173.674 150.481,173.676 150.481,173.676 C150.481,173.676 153.919,173.997 159.76,173.997 C175.604,173.997 209.107,171.636 239.452,154.117 C280.984,130.138 300.879,86.844 300.879,86.844 C300.879,86.844 297.441,86.524 291.602,86.524" id="Fill-7" fill="#7AA9F8" sketch:type="MSShapeGroup"></path>
                <path d="M150.484,173.666 L150.484,173.67 C150.484,173.669 150.484,173.669 150.485,173.668 C150.484,173.667 150.484,173.667 150.484,173.666 M237.317,23.274 C237.317,23.274 201.846,39.573 177.336,73.464 C177.785,77.824 178.032,82.287 178.032,86.836 C178.032,115.424 168.241,140.788 160.334,156.61 C170.084,141.851 187.151,120.697 211.906,106.405 C215.845,104.13 219.839,102.111 223.839,100.32 C240.934,62.146 237.317,23.274 237.317,23.274" id="Fill-8" fill="#7AA9F8" sketch:type="MSShapeGroup"></path>
                <path d="M177.336,73.464 C174.768,77.016 172.319,80.762 170.044,84.701 C155.753,109.454 151.549,136.307 150.484,153.963 C151.205,165.925 150.484,173.663 150.484,173.663 C150.484,173.663 150.484,173.663 150.483,173.663 C150.483,173.664 150.483,173.665 150.484,173.666 C150.484,173.667 150.484,173.667 150.485,173.668 C150.614,173.389 153.861,166.409 160.334,156.61 C168.241,140.788 178.032,115.424 178.032,86.836 C178.032,82.287 177.785,77.824 177.336,73.464" id="Fill-9" fill="#5390F6" sketch:type="MSShapeGroup"></path>
                <path d="M150.484,153.963 C149.778,165.68 150.454,173.346 150.483,173.663 L150.484,173.663 C150.484,173.663 151.205,165.925 150.484,153.963" id="Fill-10" fill="#4788F4" sketch:type="MSShapeGroup"></path>
                <path d="M223.839,100.32 C219.839,102.111 215.845,104.13 211.906,106.405 C187.151,120.697 170.084,141.851 160.334,156.61 C154.977,167.33 150.485,173.668 150.485,173.668 C150.484,173.669 150.484,173.669 150.484,173.67 L150.484,173.673 C150.484,173.673 193.778,153.779 217.756,112.248 C220.031,108.309 222.048,104.32 223.839,100.32" id="Fill-11" fill="#5390F6" sketch:type="MSShapeGroup"></path>
                <path d="M160.334,156.61 C153.861,166.409 150.614,173.389 150.485,173.668 C150.485,173.668 154.977,167.33 160.334,156.61" id="Fill-12" fill="#4788F4" sketch:type="MSShapeGroup"></path>
            </g>
        </g>
    </g>
</svg>